<mxfile host="www.draw.io" modified="2019-12-18T07:35:21.593Z" agent="Mozilla/5.0 (Macintosh; Intel Mac OS X 10_14_6) AppleWebKit/537.36 (KHTML, like Gecko) Chrome/79.0.3945.79 Safari/537.36" etag="ANQ7AzkCxMP3gAZhAvQV" version="12.4.3" type="github" pages="1">
  <diagram id="peSgpNI3BcgGdvSU9K40" name="Page-1">
    <mxGraphModel dx="905" dy="623" grid="1" gridSize="10" guides="1" tooltips="1" connect="1" arrows="1" fold="1" page="1" pageScale="1" pageWidth="1169" pageHeight="827" math="0" shadow="0">
      <root>
        <mxCell id="0"/>
        <mxCell id="1" parent="0"/>
        <mxCell id="VliR9g0e-GEGa0XOMWeD-1" value="0x59" style="rounded=0;whiteSpace=wrap;html=1;fontStyle=1;fontSize=14;" parent="1" vertex="1">
          <mxGeometry x="141" y="85" width="40" height="40" as="geometry"/>
        </mxCell>
        <mxCell id="VliR9g0e-GEGa0XOMWeD-2" value="0xD6" style="rounded=0;whiteSpace=wrap;html=1;fontStyle=1;fontSize=14;" parent="1" vertex="1">
          <mxGeometry x="181" y="85" width="40" height="40" as="geometry"/>
        </mxCell>
        <mxCell id="VliR9g0e-GEGa0XOMWeD-3" value="0x12" style="rounded=0;whiteSpace=wrap;html=1;fontStyle=1;fontSize=14;" parent="1" vertex="1">
          <mxGeometry x="221" y="85" width="40" height="40" as="geometry"/>
        </mxCell>
        <mxCell id="VliR9g0e-GEGa0XOMWeD-4" value="0x00" style="rounded=0;whiteSpace=wrap;html=1;fontStyle=1;fontSize=14;" parent="1" vertex="1">
          <mxGeometry x="261" y="85" width="40" height="40" as="geometry"/>
        </mxCell>
        <mxCell id="VliR9g0e-GEGa0XOMWeD-5" value="0x00" style="rounded=0;whiteSpace=wrap;html=1;fontStyle=1;fontSize=14;" parent="1" vertex="1">
          <mxGeometry x="301" y="85" width="40" height="40" as="geometry"/>
        </mxCell>
        <mxCell id="VliR9g0e-GEGa0XOMWeD-6" value="0x00" style="rounded=0;whiteSpace=wrap;html=1;fontStyle=1;fontSize=14;" parent="1" vertex="1">
          <mxGeometry x="341" y="85" width="40" height="40" as="geometry"/>
        </mxCell>
        <mxCell id="VliR9g0e-GEGa0XOMWeD-7" value="0x00" style="rounded=0;whiteSpace=wrap;html=1;fontStyle=1;fontSize=14;" parent="1" vertex="1">
          <mxGeometry x="381" y="85" width="40" height="40" as="geometry"/>
        </mxCell>
        <mxCell id="VliR9g0e-GEGa0XOMWeD-8" value="0x00" style="rounded=0;whiteSpace=wrap;html=1;fontStyle=1;fontSize=14;" parent="1" vertex="1">
          <mxGeometry x="421" y="85" width="40" height="40" as="geometry"/>
        </mxCell>
        <mxCell id="VliR9g0e-GEGa0XOMWeD-28" value="" style="shape=curlyBracket;whiteSpace=wrap;html=1;rounded=1;fontSize=14;rotation=-90;" parent="1" vertex="1">
          <mxGeometry x="291" y="-15" width="20" height="320" as="geometry"/>
        </mxCell>
        <mxCell id="VliR9g0e-GEGa0XOMWeD-29" value="8 bytes uint64" style="text;html=1;strokeColor=none;fillColor=none;align=center;verticalAlign=middle;whiteSpace=wrap;rounded=0;fontSize=14;" parent="1" vertex="1">
          <mxGeometry x="221" y="156" width="164" height="20" as="geometry"/>
        </mxCell>
        <mxCell id="ZOe7THteKk9-Ha0sNbh8-1" value=".osrm " style="text;html=1;strokeColor=none;fillColor=none;align=left;verticalAlign=middle;whiteSpace=wrap;rounded=0;fontSize=16;fontStyle=1" parent="1" vertex="1">
          <mxGeometry x="39" y="10" width="245" height="20" as="geometry"/>
        </mxCell>
        <mxCell id="1GXQoTSjyK3YCtDIwdtC-1" value="/extractor/edges.meta" style="text;html=1;strokeColor=none;fillColor=none;align=left;verticalAlign=middle;whiteSpace=wrap;rounded=0;fontSize=16;fontStyle=1" parent="1" vertex="1">
          <mxGeometry x="181" y="50" width="245" height="20" as="geometry"/>
        </mxCell>
        <mxCell id="1GXQoTSjyK3YCtDIwdtC-2" value="&lt;font style=&quot;font-size: 14px&quot;&gt;&lt;span style=&quot;font-weight: normal&quot;&gt;Indicates how many edges stored in &lt;br&gt;&lt;/span&gt;/extractor/edges&lt;br&gt;&lt;br&gt;&lt;span style=&quot;font-weight: 400 ; text-align: center&quot;&gt;Sample value:&amp;nbsp;&lt;/span&gt;&lt;b style=&quot;text-align: center&quot;&gt;1234521&lt;/b&gt;&lt;br&gt;&lt;/font&gt;" style="text;html=1;strokeColor=#d6b656;fillColor=#fff2cc;align=left;verticalAlign=middle;whiteSpace=wrap;rounded=0;fontSize=16;fontStyle=1" parent="1" vertex="1">
          <mxGeometry x="499.5" y="85" width="320" height="90" as="geometry"/>
        </mxCell>
        <mxCell id="1GXQoTSjyK3YCtDIwdtC-5" value="/extractor/edges" style="text;html=1;strokeColor=none;fillColor=none;align=left;verticalAlign=middle;whiteSpace=wrap;rounded=0;fontSize=16;fontStyle=1" parent="1" vertex="1">
          <mxGeometry x="180" y="285" width="245" height="20" as="geometry"/>
        </mxCell>
        <mxCell id="1GXQoTSjyK3YCtDIwdtC-6" value="0x00" style="rounded=0;whiteSpace=wrap;html=1;fontStyle=1;fontSize=14;" parent="1" vertex="1">
          <mxGeometry x="199.5" y="325" width="40" height="40" as="geometry"/>
        </mxCell>
        <mxCell id="1GXQoTSjyK3YCtDIwdtC-7" value="0x00" style="rounded=0;whiteSpace=wrap;html=1;fontStyle=1;fontSize=14;" parent="1" vertex="1">
          <mxGeometry x="239.5" y="325" width="40" height="40" as="geometry"/>
        </mxCell>
        <mxCell id="1GXQoTSjyK3YCtDIwdtC-8" value="0x00" style="rounded=0;whiteSpace=wrap;html=1;fontStyle=1;fontSize=14;" parent="1" vertex="1">
          <mxGeometry x="279.5" y="325" width="40" height="40" as="geometry"/>
        </mxCell>
        <mxCell id="1GXQoTSjyK3YCtDIwdtC-9" value="0x00" style="rounded=0;whiteSpace=wrap;html=1;fontStyle=1;fontSize=14;" parent="1" vertex="1">
          <mxGeometry x="319.5" y="325" width="40" height="40" as="geometry"/>
        </mxCell>
        <mxCell id="1GXQoTSjyK3YCtDIwdtC-10" value="0x84" style="rounded=0;whiteSpace=wrap;html=1;fontStyle=1;fontSize=14;" parent="1" vertex="1">
          <mxGeometry x="359.5" y="325" width="40" height="40" as="geometry"/>
        </mxCell>
        <mxCell id="1GXQoTSjyK3YCtDIwdtC-11" value="0x70" style="rounded=0;whiteSpace=wrap;html=1;fontStyle=1;fontSize=14;" parent="1" vertex="1">
          <mxGeometry x="399.5" y="325" width="40" height="40" as="geometry"/>
        </mxCell>
        <mxCell id="1GXQoTSjyK3YCtDIwdtC-12" value="0x07" style="rounded=0;whiteSpace=wrap;html=1;fontStyle=1;fontSize=14;" parent="1" vertex="1">
          <mxGeometry x="439.5" y="325" width="40" height="40" as="geometry"/>
        </mxCell>
        <mxCell id="1GXQoTSjyK3YCtDIwdtC-13" value="0x00" style="rounded=0;whiteSpace=wrap;html=1;fontStyle=1;fontSize=14;" parent="1" vertex="1">
          <mxGeometry x="479.5" y="325" width="40" height="40" as="geometry"/>
        </mxCell>
        <mxCell id="1GXQoTSjyK3YCtDIwdtC-14" value="" style="shape=curlyBracket;whiteSpace=wrap;html=1;rounded=1;fontSize=14;rotation=-90;" parent="1" vertex="1">
          <mxGeometry x="270" y="305" width="20" height="160" as="geometry"/>
        </mxCell>
        <mxCell id="1GXQoTSjyK3YCtDIwdtC-15" value="4 bytes uint32&lt;br&gt;&lt;b&gt;Source &lt;br&gt;Internal NodeID&lt;/b&gt;&lt;b&gt;&lt;br&gt;&lt;/b&gt;" style="text;html=1;strokeColor=none;fillColor=none;align=center;verticalAlign=middle;whiteSpace=wrap;rounded=0;fontSize=14;" parent="1" vertex="1">
          <mxGeometry x="180" y="388.5" width="199" height="55" as="geometry"/>
        </mxCell>
        <mxCell id="1GXQoTSjyK3YCtDIwdtC-16" value="0x18" style="rounded=0;whiteSpace=wrap;html=1;fontStyle=1;fontSize=14;" parent="1" vertex="1">
          <mxGeometry x="519.5" y="325" width="40" height="40" as="geometry"/>
        </mxCell>
        <mxCell id="1GXQoTSjyK3YCtDIwdtC-17" value="0x00" style="rounded=0;whiteSpace=wrap;html=1;fontStyle=1;fontSize=14;" parent="1" vertex="1">
          <mxGeometry x="559.5" y="325" width="40" height="40" as="geometry"/>
        </mxCell>
        <mxCell id="1GXQoTSjyK3YCtDIwdtC-18" value="0x00" style="rounded=0;whiteSpace=wrap;html=1;fontStyle=1;fontSize=14;" parent="1" vertex="1">
          <mxGeometry x="599.5" y="325" width="40" height="40" as="geometry"/>
        </mxCell>
        <mxCell id="1GXQoTSjyK3YCtDIwdtC-19" value="0x00" style="rounded=0;whiteSpace=wrap;html=1;fontStyle=1;fontSize=14;" parent="1" vertex="1">
          <mxGeometry x="639.5" y="325" width="40" height="40" as="geometry"/>
        </mxCell>
        <mxCell id="1GXQoTSjyK3YCtDIwdtC-20" value="0x18" style="rounded=0;whiteSpace=wrap;html=1;fontStyle=1;fontSize=14;" parent="1" vertex="1">
          <mxGeometry x="679.5" y="325" width="40" height="40" as="geometry"/>
        </mxCell>
        <mxCell id="1GXQoTSjyK3YCtDIwdtC-21" value="0x00" style="rounded=0;whiteSpace=wrap;html=1;fontStyle=1;fontSize=14;" parent="1" vertex="1">
          <mxGeometry x="719.5" y="325" width="40" height="40" as="geometry"/>
        </mxCell>
        <mxCell id="1GXQoTSjyK3YCtDIwdtC-22" value="0x00" style="rounded=0;whiteSpace=wrap;html=1;fontStyle=1;fontSize=14;" parent="1" vertex="1">
          <mxGeometry x="759.5" y="325" width="40" height="40" as="geometry"/>
        </mxCell>
        <mxCell id="1GXQoTSjyK3YCtDIwdtC-23" value="0x00" style="rounded=0;whiteSpace=wrap;html=1;fontStyle=1;fontSize=14;" parent="1" vertex="1">
          <mxGeometry x="799.5" y="325" width="40" height="40" as="geometry"/>
        </mxCell>
        <mxCell id="1GXQoTSjyK3YCtDIwdtC-24" value="" style="shape=curlyBracket;whiteSpace=wrap;html=1;rounded=1;fontSize=14;rotation=-90;" parent="1" vertex="1">
          <mxGeometry x="430" y="305" width="20" height="160" as="geometry"/>
        </mxCell>
        <mxCell id="1GXQoTSjyK3YCtDIwdtC-31" value="" style="shape=curlyBracket;whiteSpace=wrap;html=1;rounded=1;fontSize=14;rotation=0;" parent="1" vertex="1">
          <mxGeometry x="160" y="325" width="20" height="455" as="geometry"/>
        </mxCell>
        <mxCell id="1GXQoTSjyK3YCtDIwdtC-32" value="" style="rounded=0;whiteSpace=wrap;html=1;" parent="1" vertex="1">
          <mxGeometry x="200" y="550" width="1279.5" height="40" as="geometry"/>
        </mxCell>
        <mxCell id="1GXQoTSjyK3YCtDIwdtC-33" value="" style="rounded=0;whiteSpace=wrap;html=1;" parent="1" vertex="1">
          <mxGeometry x="200" y="600" width="1279.5" height="40" as="geometry"/>
        </mxCell>
        <mxCell id="1GXQoTSjyK3YCtDIwdtC-34" value="" style="endArrow=none;dashed=1;html=1;strokeWidth=10;strokeColor=#000000;rounded=1;dashPattern=1 1;" parent="1" edge="1">
          <mxGeometry width="50" height="50" relative="1" as="geometry">
            <mxPoint x="220" y="719" as="sourcePoint"/>
            <mxPoint x="220" y="659" as="targetPoint"/>
            <Array as="points">
              <mxPoint x="220.5" y="669"/>
            </Array>
          </mxGeometry>
        </mxCell>
        <mxCell id="1GXQoTSjyK3YCtDIwdtC-35" value="&lt;b&gt;edges, &lt;br&gt;count: edges.meta&lt;/b&gt;" style="text;html=1;strokeColor=none;fillColor=none;align=center;verticalAlign=middle;whiteSpace=wrap;rounded=0;fontSize=14;" parent="1" vertex="1">
          <mxGeometry x="20" y="497.5" width="150" height="65" as="geometry"/>
        </mxCell>
        <mxCell id="1GXQoTSjyK3YCtDIwdtC-36" value="" style="rounded=0;whiteSpace=wrap;html=1;" parent="1" vertex="1">
          <mxGeometry x="199" y="740" width="1280.5" height="40" as="geometry"/>
        </mxCell>
        <mxCell id="1GXQoTSjyK3YCtDIwdtC-38" value="4 bytes uint32&lt;br&gt;&lt;b&gt;Target &lt;br&gt;Internal NodeID&lt;/b&gt;&lt;b&gt;&lt;br&gt;&lt;/b&gt;" style="text;html=1;strokeColor=none;fillColor=none;align=center;verticalAlign=middle;whiteSpace=wrap;rounded=0;fontSize=14;" parent="1" vertex="1">
          <mxGeometry x="339.5" y="388.5" width="199" height="55" as="geometry"/>
        </mxCell>
        <mxCell id="LCOS7pQHtBjKBEXSgl_J-1" value="" style="shape=curlyBracket;whiteSpace=wrap;html=1;rounded=1;fontSize=14;rotation=-90;" parent="1" vertex="1">
          <mxGeometry x="590" y="305" width="20" height="160" as="geometry"/>
        </mxCell>
        <mxCell id="LCOS7pQHtBjKBEXSgl_J-2" value="4 bytes int32&lt;br&gt;&lt;b&gt;EdgeWeight&lt;br&gt;&lt;/b&gt;" style="text;html=1;strokeColor=none;fillColor=none;align=center;verticalAlign=middle;whiteSpace=wrap;rounded=0;fontSize=14;" parent="1" vertex="1">
          <mxGeometry x="499.5" y="388.5" width="199" height="55" as="geometry"/>
        </mxCell>
        <mxCell id="LCOS7pQHtBjKBEXSgl_J-3" value="" style="shape=curlyBracket;whiteSpace=wrap;html=1;rounded=1;fontSize=14;rotation=-90;" parent="1" vertex="1">
          <mxGeometry x="750.5" y="305" width="20" height="160" as="geometry"/>
        </mxCell>
        <mxCell id="LCOS7pQHtBjKBEXSgl_J-4" value="4 bytes int32&lt;br&gt;&lt;b&gt;EdgeDuration&lt;br&gt;&lt;/b&gt;" style="text;html=1;strokeColor=none;fillColor=none;align=center;verticalAlign=middle;whiteSpace=wrap;rounded=0;fontSize=14;" parent="1" vertex="1">
          <mxGeometry x="660" y="388.5" width="199" height="55" as="geometry"/>
        </mxCell>
        <mxCell id="LCOS7pQHtBjKBEXSgl_J-5" value="0x73" style="rounded=0;whiteSpace=wrap;html=1;fontStyle=1;fontSize=14;" parent="1" vertex="1">
          <mxGeometry x="839.5" y="325" width="40" height="40" as="geometry"/>
        </mxCell>
        <mxCell id="LCOS7pQHtBjKBEXSgl_J-6" value="0x25" style="rounded=0;whiteSpace=wrap;html=1;fontStyle=1;fontSize=14;" parent="1" vertex="1">
          <mxGeometry x="879.5" y="325" width="40" height="40" as="geometry"/>
        </mxCell>
        <mxCell id="LCOS7pQHtBjKBEXSgl_J-7" value="0x5B" style="rounded=0;whiteSpace=wrap;html=1;fontStyle=1;fontSize=14;" parent="1" vertex="1">
          <mxGeometry x="919.5" y="325" width="40" height="40" as="geometry"/>
        </mxCell>
        <mxCell id="LCOS7pQHtBjKBEXSgl_J-8" value="0x42" style="rounded=0;whiteSpace=wrap;html=1;fontStyle=1;fontSize=14;" parent="1" vertex="1">
          <mxGeometry x="959.5" y="325" width="40" height="40" as="geometry"/>
        </mxCell>
        <mxCell id="LCOS7pQHtBjKBEXSgl_J-9" value="0xFF" style="rounded=0;whiteSpace=wrap;html=1;fontStyle=1;fontSize=14;" parent="1" vertex="1">
          <mxGeometry x="999.5" y="325" width="40" height="40" as="geometry"/>
        </mxCell>
        <mxCell id="LCOS7pQHtBjKBEXSgl_J-10" value="0xFF" style="rounded=0;whiteSpace=wrap;html=1;fontStyle=1;fontSize=14;" parent="1" vertex="1">
          <mxGeometry x="1039.5" y="325" width="40" height="40" as="geometry"/>
        </mxCell>
        <mxCell id="LCOS7pQHtBjKBEXSgl_J-11" value="0xFF" style="rounded=0;whiteSpace=wrap;html=1;fontStyle=1;fontSize=14;" parent="1" vertex="1">
          <mxGeometry x="1079.5" y="325" width="40" height="40" as="geometry"/>
        </mxCell>
        <mxCell id="LCOS7pQHtBjKBEXSgl_J-12" value="0x7F" style="rounded=0;whiteSpace=wrap;html=1;fontStyle=1;fontSize=14;" parent="1" vertex="1">
          <mxGeometry x="1119.5" y="325" width="40" height="40" as="geometry"/>
        </mxCell>
        <mxCell id="LCOS7pQHtBjKBEXSgl_J-13" value="0xCE" style="rounded=0;whiteSpace=wrap;html=1;fontStyle=1;fontSize=14;" parent="1" vertex="1">
          <mxGeometry x="1159.5" y="325" width="40" height="40" as="geometry"/>
        </mxCell>
        <mxCell id="LCOS7pQHtBjKBEXSgl_J-14" value="0xAD" style="rounded=0;whiteSpace=wrap;html=1;fontStyle=1;fontSize=14;" parent="1" vertex="1">
          <mxGeometry x="1199.5" y="325" width="40" height="40" as="geometry"/>
        </mxCell>
        <mxCell id="LCOS7pQHtBjKBEXSgl_J-15" value="0x00" style="rounded=0;whiteSpace=wrap;html=1;fontStyle=1;fontSize=14;" parent="1" vertex="1">
          <mxGeometry x="1239.5" y="325" width="40" height="40" as="geometry"/>
        </mxCell>
        <mxCell id="LCOS7pQHtBjKBEXSgl_J-16" value="0x00" style="rounded=0;whiteSpace=wrap;html=1;fontStyle=1;fontSize=14;" parent="1" vertex="1">
          <mxGeometry x="1279.5" y="325" width="40" height="40" as="geometry"/>
        </mxCell>
        <mxCell id="LCOS7pQHtBjKBEXSgl_J-17" value="0x21" style="rounded=0;whiteSpace=wrap;html=1;fontStyle=1;fontSize=14;" parent="1" vertex="1">
          <mxGeometry x="1319.5" y="325" width="40" height="40" as="geometry"/>
        </mxCell>
        <mxCell id="LCOS7pQHtBjKBEXSgl_J-18" value="0x01" style="rounded=0;whiteSpace=wrap;html=1;fontStyle=1;fontSize=14;" parent="1" vertex="1">
          <mxGeometry x="1359.5" y="325" width="40" height="40" as="geometry"/>
        </mxCell>
        <mxCell id="LCOS7pQHtBjKBEXSgl_J-19" value="0x02" style="rounded=0;whiteSpace=wrap;html=1;fontStyle=1;fontSize=14;" parent="1" vertex="1">
          <mxGeometry x="1399.5" y="325" width="40" height="40" as="geometry"/>
        </mxCell>
        <mxCell id="LCOS7pQHtBjKBEXSgl_J-20" value="0x00" style="rounded=0;whiteSpace=wrap;html=1;fontStyle=1;fontSize=14;" parent="1" vertex="1">
          <mxGeometry x="1439.5" y="325" width="40" height="40" as="geometry"/>
        </mxCell>
        <mxCell id="LCOS7pQHtBjKBEXSgl_J-21" value="" style="shape=curlyBracket;whiteSpace=wrap;html=1;rounded=1;fontSize=14;rotation=-90;" parent="1" vertex="1">
          <mxGeometry x="910" y="305" width="20" height="160" as="geometry"/>
        </mxCell>
        <mxCell id="LCOS7pQHtBjKBEXSgl_J-22" value="4 bytes float32&lt;br&gt;&lt;b&gt;EdgeDistance&lt;br&gt;&lt;/b&gt;" style="text;html=1;strokeColor=none;fillColor=none;align=center;verticalAlign=middle;whiteSpace=wrap;rounded=0;fontSize=14;" parent="1" vertex="1">
          <mxGeometry x="819.5" y="388.5" width="199" height="55" as="geometry"/>
        </mxCell>
        <mxCell id="LCOS7pQHtBjKBEXSgl_J-23" value="" style="shape=curlyBracket;whiteSpace=wrap;html=1;rounded=1;fontSize=14;rotation=-90;" parent="1" vertex="1">
          <mxGeometry x="1070.5" y="305" width="20" height="160" as="geometry"/>
        </mxCell>
        <mxCell id="LCOS7pQHtBjKBEXSgl_J-24" value="4 bytes&lt;br&gt;&lt;b&gt;GeometryID&lt;br&gt;&lt;/b&gt;" style="text;html=1;strokeColor=none;fillColor=none;align=center;verticalAlign=middle;whiteSpace=wrap;rounded=0;fontSize=14;" parent="1" vertex="1">
          <mxGeometry x="980" y="388.5" width="199" height="55" as="geometry"/>
        </mxCell>
        <mxCell id="LCOS7pQHtBjKBEXSgl_J-25" value="" style="shape=curlyBracket;whiteSpace=wrap;html=1;rounded=1;fontSize=14;rotation=-90;" parent="1" vertex="1">
          <mxGeometry x="1230.5" y="305" width="20" height="160" as="geometry"/>
        </mxCell>
        <mxCell id="LCOS7pQHtBjKBEXSgl_J-26" value="4 bytes uint32&lt;br&gt;&lt;b&gt;AnnotationID&lt;br&gt;&lt;/b&gt;" style="text;html=1;strokeColor=none;fillColor=none;align=center;verticalAlign=middle;whiteSpace=wrap;rounded=0;fontSize=14;" parent="1" vertex="1">
          <mxGeometry x="1140" y="388.5" width="199" height="55" as="geometry"/>
        </mxCell>
        <mxCell id="LCOS7pQHtBjKBEXSgl_J-27" value="" style="shape=curlyBracket;whiteSpace=wrap;html=1;rounded=1;fontSize=14;rotation=-90;" parent="1" vertex="1">
          <mxGeometry x="1390.5" y="305" width="20" height="160" as="geometry"/>
        </mxCell>
        <mxCell id="LCOS7pQHtBjKBEXSgl_J-28" value="4 bytes&lt;br&gt;&lt;b&gt;NodeBasedEdgeClassification&lt;br&gt;&lt;/b&gt;" style="text;html=1;strokeColor=none;fillColor=none;align=center;verticalAlign=middle;whiteSpace=wrap;rounded=0;fontSize=14;" parent="1" vertex="1">
          <mxGeometry x="1300" y="388.5" width="199" height="55" as="geometry"/>
        </mxCell>
        <mxCell id="LCOS7pQHtBjKBEXSgl_J-29" value="" style="shape=crossbar;whiteSpace=wrap;html=1;rounded=1;" parent="1" vertex="1">
          <mxGeometry x="999.25" y="270" width="159.75" height="50" as="geometry"/>
        </mxCell>
        <mxCell id="LCOS7pQHtBjKBEXSgl_J-31" value="" style="shape=crossbar;whiteSpace=wrap;html=1;rounded=1;" parent="1" vertex="1">
          <mxGeometry x="1119.5" y="310" width="10" height="15" as="geometry"/>
        </mxCell>
        <mxCell id="LCOS7pQHtBjKBEXSgl_J-32" value="31 bits&lt;br&gt;&lt;b&gt;Internal NodeID&lt;br&gt;&lt;/b&gt;" style="text;html=1;strokeColor=none;fillColor=none;align=center;verticalAlign=middle;whiteSpace=wrap;rounded=0;fontSize=14;" parent="1" vertex="1">
          <mxGeometry x="959.5" y="250" width="199" height="55" as="geometry"/>
        </mxCell>
        <mxCell id="LCOS7pQHtBjKBEXSgl_J-33" value="1 bit&lt;br&gt;&lt;b&gt;forward&lt;br&gt;&lt;/b&gt;" style="text;html=1;strokeColor=none;fillColor=none;align=center;verticalAlign=middle;whiteSpace=wrap;rounded=0;fontSize=14;" parent="1" vertex="1">
          <mxGeometry x="1077.75" y="195" width="89.5" height="55" as="geometry"/>
        </mxCell>
        <mxCell id="aOTyq8T4zzu366zdv131-3" value="" style="endArrow=none;html=1;entryX=0.5;entryY=1;entryDx=0;entryDy=0;" parent="1" target="LCOS7pQHtBjKBEXSgl_J-33" edge="1">
          <mxGeometry width="50" height="50" relative="1" as="geometry">
            <mxPoint x="1123" y="318" as="sourcePoint"/>
            <mxPoint x="1143" y="258" as="targetPoint"/>
          </mxGeometry>
        </mxCell>
        <mxCell id="aOTyq8T4zzu366zdv131-6" value="&lt;font style=&quot;font-size: 14px&quot;&gt;&lt;span style=&quot;font-weight: normal&quot;&gt;Due to&lt;/span&gt; LittleEndian&lt;br&gt;&lt;/font&gt;" style="text;html=1;strokeColor=#d6b656;fillColor=#fff2cc;align=left;verticalAlign=middle;whiteSpace=wrap;rounded=0;fontSize=16;fontStyle=1" parent="1" vertex="1">
          <mxGeometry x="1054.5" y="170" width="90" height="35" as="geometry"/>
        </mxCell>
        <mxCell id="aOTyq8T4zzu366zdv131-15" style="rounded=0;orthogonalLoop=1;jettySize=auto;html=1;exitX=0.75;exitY=1;exitDx=0;exitDy=0;entryX=0.5;entryY=0;entryDx=0;entryDy=0;endArrow=none;endFill=0;" parent="1" source="aOTyq8T4zzu366zdv131-7" target="LCOS7pQHtBjKBEXSgl_J-17" edge="1">
          <mxGeometry relative="1" as="geometry"/>
        </mxCell>
        <mxCell id="aOTyq8T4zzu366zdv131-7" value="&lt;div style=&quot;text-align: left&quot;&gt;1 bit &lt;b&gt;Forward&lt;/b&gt;&lt;/div&gt;&lt;div style=&quot;text-align: left&quot;&gt;1 bit &lt;b&gt;Backward&lt;/b&gt;&lt;/div&gt;&lt;div style=&quot;text-align: left&quot;&gt;1 bit &lt;b&gt;IsSplit&lt;/b&gt;&lt;/div&gt;&lt;div style=&quot;text-align: left&quot;&gt;1 bit &lt;b&gt;Roundabout&lt;/b&gt;&lt;/div&gt;&lt;div style=&quot;text-align: left&quot;&gt;1 bit &lt;b&gt;Circular&lt;/b&gt;&lt;/div&gt;&lt;div style=&quot;text-align: left&quot;&gt;1 bit &lt;b&gt;Startpoint&lt;/b&gt;&lt;/div&gt;&lt;div style=&quot;text-align: left&quot;&gt;&lt;span&gt;1 bit&amp;nbsp;&lt;/span&gt;&lt;b&gt;Restricted&lt;/b&gt;&lt;/div&gt;&lt;div style=&quot;text-align: left&quot;&gt;(still 1 bit reserved)&lt;/div&gt;" style="text;html=1;strokeColor=none;fillColor=none;align=center;verticalAlign=middle;whiteSpace=wrap;rounded=0;fontSize=14;" parent="1" vertex="1">
          <mxGeometry x="1199.5" y="110" width="151.5" height="130" as="geometry"/>
        </mxCell>
        <mxCell id="aOTyq8T4zzu366zdv131-16" value="&lt;div style=&quot;text-align: left&quot;&gt;&lt;span&gt;4 bits&amp;nbsp;&lt;/span&gt;&lt;b&gt;HighwayTurnClassification&lt;/b&gt;&lt;br&gt;&lt;/div&gt;&lt;div style=&quot;text-align: left&quot;&gt;&lt;span&gt;4 bits&amp;nbsp;&lt;/span&gt;&lt;b&gt;AccessTurnClassification&lt;/b&gt;&lt;/div&gt;" style="text;html=1;strokeColor=none;fillColor=none;align=center;verticalAlign=middle;whiteSpace=wrap;rounded=0;fontSize=14;" parent="1" vertex="1">
          <mxGeometry x="1520" y="240" width="240.5" height="30" as="geometry"/>
        </mxCell>
        <mxCell id="aOTyq8T4zzu366zdv131-17" value="" style="endArrow=none;html=1;" parent="1" target="aOTyq8T4zzu366zdv131-16" edge="1">
          <mxGeometry width="50" height="50" relative="1" as="geometry">
            <mxPoint x="1460" y="325" as="sourcePoint"/>
            <mxPoint x="1480" y="265" as="targetPoint"/>
          </mxGeometry>
        </mxCell>
        <mxCell id="aOTyq8T4zzu366zdv131-18" value="&lt;div style=&quot;text-align: left&quot;&gt;&lt;span&gt;1 bit&amp;nbsp;&lt;/span&gt;&lt;b&gt;MotowayClass&lt;/b&gt;&lt;br&gt;&lt;/div&gt;&lt;div style=&quot;text-align: left&quot;&gt;&lt;span&gt;1 bit&amp;nbsp;&lt;/span&gt;&lt;b&gt;LinkClass&lt;/b&gt;&lt;/div&gt;&lt;div style=&quot;text-align: left&quot;&gt;1 bit&amp;nbsp;&lt;b&gt;LinkClass&lt;/b&gt;&lt;b&gt;&lt;br&gt;&lt;/b&gt;&lt;/div&gt;&lt;div style=&quot;text-align: left&quot;&gt;5 bits&amp;nbsp;&lt;b&gt;RoadPriorityClass&lt;/b&gt;&lt;/div&gt;" style="text;html=1;strokeColor=none;fillColor=none;align=center;verticalAlign=middle;whiteSpace=wrap;rounded=0;fontSize=14;" parent="1" vertex="1">
          <mxGeometry x="1310" y="85" width="240.5" height="60" as="geometry"/>
        </mxCell>
        <mxCell id="aOTyq8T4zzu366zdv131-19" style="rounded=0;orthogonalLoop=1;jettySize=auto;html=1;exitX=0.25;exitY=1;exitDx=0;exitDy=0;endArrow=none;endFill=0;entryX=0.5;entryY=0.5;entryDx=0;entryDy=0;entryPerimeter=0;" parent="1" source="aOTyq8T4zzu366zdv131-18" target="aOTyq8T4zzu366zdv131-24" edge="1">
          <mxGeometry relative="1" as="geometry">
            <mxPoint x="1323.125" y="250" as="sourcePoint"/>
            <mxPoint x="1370" y="260" as="targetPoint"/>
          </mxGeometry>
        </mxCell>
        <mxCell id="aOTyq8T4zzu366zdv131-20" value="&lt;div&gt;&lt;span&gt;1 byte&amp;nbsp;&lt;/span&gt;&lt;/div&gt;&lt;div&gt;&lt;b&gt;NumerOfLanes&lt;/b&gt;&lt;br&gt;&lt;/div&gt;" style="text;html=1;strokeColor=none;fillColor=none;align=center;verticalAlign=middle;whiteSpace=wrap;rounded=0;fontSize=14;" parent="1" vertex="1">
          <mxGeometry x="1520" y="115" width="139" height="30" as="geometry"/>
        </mxCell>
        <mxCell id="aOTyq8T4zzu366zdv131-21" style="rounded=0;orthogonalLoop=1;jettySize=auto;html=1;exitX=0.5;exitY=1;exitDx=0;exitDy=0;endArrow=none;endFill=0;entryX=0.5;entryY=0.5;entryDx=0;entryDy=0;entryPerimeter=0;" parent="1" source="aOTyq8T4zzu366zdv131-20" target="aOTyq8T4zzu366zdv131-26" edge="1">
          <mxGeometry relative="1" as="geometry">
            <mxPoint x="1380.125" y="155" as="sourcePoint"/>
            <mxPoint x="1430" y="260" as="targetPoint"/>
          </mxGeometry>
        </mxCell>
        <mxCell id="aOTyq8T4zzu366zdv131-22" value="" style="shape=crossbar;whiteSpace=wrap;html=1;rounded=1;" parent="1" vertex="1">
          <mxGeometry x="1359.5" y="310" width="80.5" height="15" as="geometry"/>
        </mxCell>
        <mxCell id="aOTyq8T4zzu366zdv131-23" value="2 bytes&lt;br style=&quot;font-size: 12px;&quot;&gt;&lt;b style=&quot;font-size: 12px;&quot;&gt;RoadClassification&lt;br style=&quot;font-size: 12px;&quot;&gt;&lt;/b&gt;" style="text;html=1;strokeColor=none;fillColor=none;align=center;verticalAlign=middle;whiteSpace=wrap;rounded=0;fontSize=12;" parent="1" vertex="1">
          <mxGeometry x="1329.5" y="280" width="140" height="30" as="geometry"/>
        </mxCell>
        <mxCell id="aOTyq8T4zzu366zdv131-24" value="" style="shape=crossbar;whiteSpace=wrap;html=1;rounded=1;fontSize=12;" parent="1" vertex="1">
          <mxGeometry x="1360" y="270" width="40" height="13" as="geometry"/>
        </mxCell>
        <mxCell id="aOTyq8T4zzu366zdv131-26" value="" style="shape=crossbar;whiteSpace=wrap;html=1;rounded=1;fontSize=12;" parent="1" vertex="1">
          <mxGeometry x="1400" y="270" width="40" height="13" as="geometry"/>
        </mxCell>
        <mxCell id="FONUryo6EK9-PI6UZZHe-1" value="&lt;font style=&quot;font-size: 14px&quot;&gt;AnnotationID&lt;span style=&quot;font-weight: 400&quot;&gt; &lt;br&gt;is index of&amp;nbsp;&lt;/span&gt;&lt;span style=&quot;font-weight: normal&quot;&gt;contents&lt;/span&gt;&lt;span style=&quot;font-weight: 400&quot;&gt;&amp;nbsp;in &lt;/span&gt;/extractor/annotations&lt;br&gt;&lt;/font&gt;" style="text;html=1;strokeColor=#d6b656;fillColor=#fff2cc;align=center;verticalAlign=middle;whiteSpace=wrap;rounded=0;fontSize=16;fontStyle=1" vertex="1" parent="1">
          <mxGeometry x="1166.63" y="437.5" width="151.87" height="60" as="geometry"/>
        </mxCell>
      </root>
    </mxGraphModel>
  </diagram>
</mxfile>
